<svg width="50" height="50" viewBox="0 0 50 50" fill="none" xmlns="http://www.w3.org/2000/svg">
<path d="M24.6553 1.15576L30.0862 4.30263H36.3799L39.5268 9.78427L45.0084 12.9311V19.2249L48.1553 24.6558L45.0084 30.0866V36.3804L39.5268 39.5273L36.3799 45.0089H30.0862L24.6553 48.1558L19.2244 45.0089H12.9307L9.78378 39.5273L4.30214 36.3804V30.0866L1.15527 24.6558L4.30214 19.2249V12.9311L9.78378 9.78427L12.9307 4.30263H19.2244L24.6553 1.15576Z" fill="black" stroke="white" stroke-width="2"/>
<path d="M24.6565 41.8632C15.1651 41.8632 7.4502 34.1483 7.4502 24.6569C7.4502 15.1656 15.1651 7.45068 24.6565 7.45068C34.1478 7.45068 41.8627 15.1656 41.8627 24.6569C41.8627 34.1483 34.1478 41.8632 24.6565 41.8632ZM24.6565 8.92261C15.9772 8.92261 8.92212 15.9777 8.92212 24.6569C8.92212 33.3362 15.9772 40.3913 24.6565 40.3913C33.3357 40.3913 40.3908 33.3362 40.3908 24.6569C40.3908 15.9777 33.3357 8.92261 24.6565 8.92261Z" fill="white" stroke="white" stroke-width="2"/>
<path d="M22.7792 31.0512L15.318 25.1128C14.709 24.6052 14.6075 23.7424 15.115 23.1333C15.6226 22.5242 16.4854 22.4227 17.0945 22.9303L23.4897 28.0566L32.0167 18.5145C32.5243 17.9562 33.4379 17.9054 33.9962 18.413C34.5545 18.9206 34.6053 19.8342 34.0977 20.3925L24.7079 30.899C24.2003 31.4573 23.3375 31.508 22.7792 31.0512Z" fill="white" stroke="white" stroke-width="2"/>
</svg>
